<?xml version="1.0" encoding="UTF-8" standalone="no"?>
<!-- Created with Inkscape (http://www.inkscape.org/) -->

<svg
   xmlns:dc="http://purl.org/dc/elements/1.1/"
   xmlns:cc="http://creativecommons.org/ns#"
   xmlns:rdf="http://www.w3.org/1999/02/22-rdf-syntax-ns#"
   xmlns:svg="http://www.w3.org/2000/svg"
   xmlns="http://www.w3.org/2000/svg"
   xmlns:xlink="http://www.w3.org/1999/xlink"
   version="1.0"
   width="22"
   height="22"
   viewBox="0 0 16 16"
   id="Foreground"
   xml:space="preserve"><metadata
   id="metadata32"><rdf:RDF><cc:Work
       rdf:about=""><dc:format>image/svg+xml</dc:format><dc:type
         rdf:resource="http://purl.org/dc/dcmitype/StillImage" /><dc:title></dc:title></cc:Work></rdf:RDF></metadata><defs
   id="defs2397"><linearGradient
     id="linearGradient3798"><stop
       id="stop3800"
       style="stop-color:#ffffff;stop-opacity:1"
       offset="0" /><stop
       id="stop3802"
       style="stop-color:#ffffff;stop-opacity:0"
       offset="1" /></linearGradient><linearGradient
     id="linearGradient3786"><stop
       id="stop3788"
       style="stop-color:#c4c4c4;stop-opacity:1"
       offset="0" /><stop
       id="stop3790"
       style="stop-color:#e8e8e8;stop-opacity:1"
       offset="1" /></linearGradient><linearGradient
     x1="-3.5067198"
     y1="5.9266276"
     x2="-2.6926942"
     y2="19.369761"
     id="linearGradient3817"
     xlink:href="#linearGradient3798"
     gradientUnits="userSpaceOnUse" /><linearGradient
     x1="-4.4485006"
     y1="25.760212"
     x2="-4.3917108"
     y2="9.2180691"
     id="linearGradient3944"
     xlink:href="#linearGradient3786"
     gradientUnits="userSpaceOnUse" /></defs>

<g
   transform="matrix(1.0405157,0,0,1.0251195,0.94740757,-1.5276931)"
   id="g3707"
   style="opacity:0.63513513;stroke:#ffffff;stroke-opacity:1"><g
     transform="translate(-1.2664093,2.4710425)"
     id="g3695"
     style="stroke:#ffffff;stroke-opacity:1" /><g
     transform="translate(-1.2664093,2.4710425)"
     id="g3701"
     style="stroke:#ffffff;stroke-opacity:1" /></g><g
   transform="matrix(1.0838509,0,0,1.0355382,32.878751,-0.24399471)"
   id="g3721"
   style="opacity:0.77830188" /><g
   transform="matrix(1.0838509,0,0,1.0355382,31.12875,0.06850529)"
   id="g3715"
   style="opacity:0.77830188" />



<rect
   width="15.904427"
   height="14.768374"
   rx="0.90882438"
   ry="0.84390718"
   x="0.06786073"
   y="1.1329597"
   id="rect3612"
   style="opacity:0.69458127;fill:#ffffff;fill-opacity:0;stroke:none" /><rect
   width="15.904427"
   height="14.768374"
   rx="0.90882438"
   ry="0.84390718"
   x="0.06786073"
   y="1.1329597"
   id="rect3793"
   style="opacity:0.69458127;fill:#ffffff;fill-opacity:0;stroke:none" /><g
   transform="matrix(0.80100012,0,0,0.8201977,1.4647545,1.6010634)"
   id="g3827"><path
     d="m 14.858193,7.6937332 a 6.014883,4.904994 0 1 1 -10e-7,-0.00362"
     transform="matrix(1.3299135,0,0,1.6198941,-3.6156847,-4.4112708)"
     id="path3823"
     style="opacity:0.30180179;fill:none;stroke:#bafaf8;stroke-width:0.84129548;stroke-miterlimit:4;stroke-opacity:1;stroke-dasharray:none" /><path
     d="m 14.858193,7.6937332 a 6.014883,4.904994 0 1 1 -10e-7,-0.00362"
     transform="matrix(1.1506888,0,0,1.389166,-2.0486463,-2.6361102)"
     id="path3821"
     style="opacity:0.45945949;fill:none;stroke:#bafaf8;stroke-width:0.84129548;stroke-miterlimit:4;stroke-opacity:1;stroke-dasharray:none" /><path
     d="m 8.1568701,2.0410607 c -3.351628,0 -6.0657278,2.6597279 -6.0657278,5.9410379 0,3.2813104 2.7140998,5.9410374 6.0657278,5.9410374 3.3516279,0 6.0657279,-2.659727 6.0657279,-5.9410374 -0.0025,-3.2795981 -2.715847,-5.9410379 -6.0657279,-5.9410379 z m 0,2.1387736 c 2.1158599,0 3.8253159,1.7180433 3.8268759,3.8286689 0,2.1117278 -1.709912,3.8286688 -3.8268759,3.8286688 -2.1169639,0 -3.8268755,-1.716941 -3.8268755,-3.8286688 0,-2.1117273 1.7099116,-3.8286689 3.8268755,-3.8286689 z"
     id="path2997"
     style="opacity:0.83333333;fill:#85faff;fill-opacity:1;stroke:#bafaf8;stroke-width:0.76471227;stroke-linecap:round;stroke-miterlimit:4;stroke-opacity:1;stroke-dasharray:none" /><path
     d="m 14.858193,7.6937332 a 6.014883,4.904994 0 1 1 -10e-7,-0.00362"
     transform="matrix(1.5443381,0,0,1.8244439,-5.5298092,-6.1103329)"
     id="path3825"
     style="opacity:0.16216215;fill:none;stroke:#bafaf8;stroke-width:0.84129548;stroke-miterlimit:4;stroke-opacity:1;stroke-dasharray:none" /></g><g
   transform="matrix(1.1429042,0,0,1.1500111,-1.0277842,-1.3194302)"
   id="g3876"><path
     d="m 6.1758861,5.0863053 c -0.037789,-0.00828 -0.078128,-0.00226 -0.1002822,0.019568 l -1.2836183,1.272004 c -0.0443,0.04368 -0.011357,0.1266368 0.060174,0.1956924 l 1.564409,1.5264038 -1.6245789,1.4676957 c -0.073661,0.066873 -0.103071,0.1702757 -0.060174,0.2152621 L 5.975321,11.074503 c 0.042898,0.04498 0.1469586,0.02774 0.2206217,-0.03914 l 1.684749,-1.5263964 1.644637,1.5851104 c 0.071521,0.06905 0.1562662,0.08282 0.2005646,0.03914 L 11.009511,9.8612128 c 0.0443,-0.043681 0.01141,-0.1266372 -0.06016,-0.1956931 L 9.3849319,8.1391116 11.009511,6.6714166 c 0.07367,-0.066884 0.103066,-0.1702755 0.06016,-0.215262 L 9.8261754,5.1645823 C 9.7832841,5.1195958 9.6792212,5.1368445 9.6055529,5.2037206 L 7.9208048,6.7301244 6.2761693,5.1450131 C 6.2404123,5.1104854 6.2136773,5.0945848 6.175886,5.0863048 z"
     id="path3846"
     style="opacity:0.62162158;fill:#e1fcff;fill-opacity:1;stroke:none" /><path
     d="m 6.7626521,6.1483801 c -0.025489,-0.00545 -0.052697,-0.00149 -0.06764,0.012882 l -0.8657955,0.83737 c -0.02988,0.028755 -0.00766,0.083366 0.040587,0.1288259 L 6.9249913,8.1323016 5.8292192,9.0984973 c -0.049684,0.044023 -0.069521,0.1120938 -0.040587,0.1417088 l 0.8387394,0.8502519 c 0.028934,0.02961 0.099123,0.01826 0.1488085,-0.02577 L 7.9125367,9.0598496 9.0218375,10.10334 c 0.048242,0.04546 0.105401,0.05452 0.1352804,0.02577 L 10.022913,9.2917391 c 0.02988,-0.028755 0.0077,-0.083366 -0.04058,-0.128826 L 8.9271408,8.1580665 10.022913,7.1918714 c 0.04969,-0.04403 0.06952,-0.1120938 0.04058,-0.1417087 L 9.2247578,6.1999105 c -0.028934,-0.029615 -0.099123,-0.01826 -0.1488085,0.025765 L 7.9395929,7.2305192 6.8302927,6.1870279 c -0.024118,-0.02273 -0.042151,-0.033197 -0.067641,-0.038648 z"
     id="rect3927"
     style="fill:#00373e;fill-opacity:1;stroke:none" /></g></svg>