<?xml version="1.0" encoding="UTF-8" standalone="no"?>
<!-- Created with Inkscape (http://www.inkscape.org/) -->

<svg
   xmlns:dc="http://purl.org/dc/elements/1.1/"
   xmlns:cc="http://creativecommons.org/ns#"
   xmlns:rdf="http://www.w3.org/1999/02/22-rdf-syntax-ns#"
   xmlns:svg="http://www.w3.org/2000/svg"
   xmlns="http://www.w3.org/2000/svg"
   version="1.1"
   width="16"
   height="16"
   id="svg2">
  <defs
     id="defs4" />
  <metadata
     id="metadata7">
    <rdf:RDF>
      <cc:Work
         rdf:about="">
        <dc:format>image/svg+xml</dc:format>
        <dc:type
           rdf:resource="http://purl.org/dc/dcmitype/StillImage" />
        <dc:title></dc:title>
      </cc:Work>
    </rdf:RDF>
  </metadata>
  <g
     transform="matrix(0.77078474,0,0,0.78858171,1.7196787,1.7832055)"
     id="g3827">
    <path
       d="m 14.858193,7.6937332 a 6.014883,4.904994 0 1 1 -10e-7,-0.00362"
       transform="matrix(1.3299135,0,0,1.6198941,-3.6156847,-4.4112708)"
       id="path3823"
       style="opacity:0.30180179;fill:none;stroke:#bafaf8;stroke-width:0.84129548;stroke-miterlimit:4;stroke-opacity:1;stroke-dasharray:none" />
    <path
       d="m 14.858193,7.6937332 a 6.014883,4.904994 0 1 1 -10e-7,-0.00362"
       transform="matrix(1.1506888,0,0,1.389166,-2.0486463,-2.6361102)"
       id="path3821"
       style="opacity:0.45945949;fill:none;stroke:#bafaf8;stroke-width:0.84129548;stroke-miterlimit:4;stroke-opacity:1;stroke-dasharray:none" />
    <path
       d="m 8.1568701,2.0410607 c -3.351628,0 -6.0657278,2.6597279 -6.0657278,5.9410379 0,3.2813104 2.7140998,5.9410374 6.0657278,5.9410374 3.3516279,0 6.0657279,-2.659727 6.0657279,-5.9410374 -0.0025,-3.2795981 -2.715847,-5.9410379 -6.0657279,-5.9410379 z m 0,2.1387736 c 2.1158599,0 3.8253159,1.7180433 3.8268759,3.8286689 0,2.1117278 -1.709912,3.8286688 -3.8268759,3.8286688 -2.1169639,0 -3.8268755,-1.716941 -3.8268755,-3.8286688 0,-2.1117273 1.7099116,-3.8286689 3.8268755,-3.8286689 z"
       id="path2997"
       style="opacity:0.83333333;fill:#dcfbff;fill-opacity:1;stroke:#bafaf8;stroke-width:0.76471227;stroke-linecap:round;stroke-miterlimit:4;stroke-opacity:1;stroke-dasharray:none" />
    <path
       d="m 14.858193,7.6937332 a 6.014883,4.904994 0 1 1 -10e-7,-0.00362"
       transform="matrix(1.5443381,0,0,1.8244439,-5.5298092,-6.1103329)"
       id="path3825"
       style="opacity:0.16216215;fill:none;stroke:#bafaf8;stroke-width:0.84129548;stroke-miterlimit:4;stroke-opacity:1;stroke-dasharray:none" />
  </g>
</svg>
